<svg width="210" height="210" viewBox="0 0 210 210" fill="none" xmlns="http://www.w3.org/2000/svg">
<circle cx="105" cy="105" r="105" fill="white"/>
<path d="M103.96 139.152L117.229 126.939C125.07 135.986 133.564 140.509 142.711 140.509C148.441 140.509 152.763 139.202 155.679 136.589C158.694 133.975 160.202 130.658 160.202 126.637C160.202 122.315 158.443 118.998 154.925 116.686C151.406 114.273 145.124 112.162 136.077 110.353C127.231 108.644 120.496 105.126 115.872 99.798C111.349 94.3698 109.087 88.0872 109.087 80.9502C109.087 72.808 112.102 65.9725 118.134 60.4438C124.165 54.8146 132.81 52 144.068 52C157.438 52 168.043 56.5737 175.883 65.7212C176.084 65.9222 176.235 66.073 176.336 66.1735L163.821 77.9346L162.464 76.5775C161.559 75.7734 160.805 75.1702 160.202 74.7681C159.599 74.2655 158.594 73.6121 157.186 72.808C155.88 71.9033 154.623 71.1996 153.417 70.697C152.211 70.1944 150.703 69.7421 148.893 69.34C147.184 68.9379 145.375 68.7368 143.465 68.7368C138.64 68.7368 134.871 69.9431 132.156 72.3556C129.543 74.6676 128.236 77.2309 128.236 80.0455C128.236 83.7648 129.744 86.7805 132.76 89.0925C135.775 91.3039 141.254 93.1636 149.195 94.6714C158.041 96.4808 165.228 99.9991 170.757 105.226C176.386 110.453 179.201 117.741 179.201 127.09C179.201 135.835 175.783 143.173 168.947 149.104C162.112 155.035 153.467 158 143.013 158C126.929 158 113.912 151.717 103.96 139.152Z" fill="#8764F0"/>
<path d="M30 143.675L43.2688 131.613C46.385 135.031 49.2499 137.343 51.8634 138.549C54.5775 139.755 57.7942 140.358 61.5135 140.358C65.4339 140.358 68.8516 139.001 71.7667 136.287C74.7824 133.473 76.2902 129.602 76.2902 124.677V54.7139H95.2887V125.732C95.2887 136.79 92.0721 144.932 85.6387 150.159C79.2053 155.386 71.4651 158 62.4182 158C48.3452 158 37.5391 153.225 30 143.675Z" fill="#8764F0"/>
</svg>
